<svg xmlns="http://www.w3.org/2000/svg" viewBox="0 0 865 865"><defs><style>.cls-1{fill:#78bcef;stroke:#000;stroke-miterlimit:10;}.cls-2{fill:#fff;}.cls-3{fill:#397ec9;}</style></defs><title>CheckN_icon</title><g id="Layer_1" data-name="Layer 1"><rect class="cls-1" x="0.5" y="0.5" width="864" height="864"/></g><g id="Icon"><ellipse class="cls-2" cx="441.24" cy="257.23" rx="124.49" ry="148.54"/><path class="cls-2" d="M560.06,359.89c-26.78,44-70.24,72.65-119.32,72.65s-92.54-28.63-119.32-72.65A184.84,184.84,0,0,0,255.5,501.57c0,102.3,82.94,185.24,185.24,185.24S626,603.87,626,501.57A184.81,184.81,0,0,0,560.06,359.89Z" transform="translate(0.5 0.5)"/><path class="cls-3" d="M585,228.32S570.57,185,530.87,150.11c-18.53-23.19-48.8-44.11-97.3-41.66,0,0-51.77-3-83.07,39.24-40.94,35.13-55.76,79.63-55.76,79.63-165.52,477.9,122.55,480,144.47,479.46v1S757,724.9,585,228.32ZM488,527.6s-33.68,9.82-44.48,19.46a15.67,15.67,0,0,0-3.34,3.06c-1.18-2.47-5.26-5.28-10.81-8.13-14.09-7.73-36.91-14.38-36.92-14.39h0c-22.94-9.83-37.76-21.75-47.27-32.43a283.3,283.3,0,0,1-16.43-28.44c59.46,24.23,69.78-36.85,70.58-42.35,30.27,12.73,57.79,10.47,81.17,1.57,1.31,8.14,12.62,65.36,70.49,41.78a284.51,284.51,0,0,1-15.87,27.6C525.6,506,510.81,517.82,488,527.6ZM462.74,186.73s41,47,87,28l3.66-3.38c14.09,40.39,10.37,94.18-35.26,163.79-42.76,38.05-102.08,27.21-102.08,27.21-24.38-5.79-42.8-17.38-56.73-31.69-41.29-64.48-46.41-115.22-35-154.16a2.14,2.14,0,0,1,3.38.23S414.74,254.73,462.74,186.73Z" transform="translate(0.5 0.5)"/><path class="cls-3" d="M556.79,252.53s-31.48-16.64-102.09,3.6c0,0-8.54,3.15-14.84,2.7-6.29.45-14.84-2.7-14.84-2.7-70.61-20.24-102.09-3.6-102.09-3.6-21.67.79-12.48,3.83-12.48,3.83l2,7c4.72,3.6,4.72,6.86,4.72,6.86,0,16.19,12.82,44.18,12.82,44.18,10.12,12.14,76.9,11.13,76.9,11.13,5.39-2.36,14.84-20.32,20.11-31.08,0,0,11.88-23.85,22.84-5.89,3.66,7.81,16.34,34.08,22.93,37,0,0,66.79,1,76.91-11.13,0,0,12.81-28,12.81-44.18,0,0,0-3.26,4.73-6.86l2-7S578.46,253.32,556.79,252.53ZM406.92,322.1v0C375.21,327.19,332,312,332,312c-19.56-37.1-7.31-57.3-7.31-57.3,37.2-8.74,85.68,1.18,105.77,6.14,2.12,9.2-1.52,21.23-6.52,32.18v0h0A186,186,0,0,1,406.92,322.1ZM547.68,312s-43.17,15.18-74.88,10.12v0s-28.72-38.94-23.58-61.25c20.1-5,68.57-14.88,105.77-6.14C555,254.71,567.25,274.91,547.68,312Z" transform="translate(0.5 0.5)"/><polygon class="cls-2" points="640.49 789.57 244.19 789.57 201.6 554.08 683.08 554.08 640.49 789.57"/><polygon class="cls-3" points="442.34 721.4 406.43 683.25 442.34 642.52 478.25 683.25 442.34 721.4"/></g></svg>